# 3ds Max Wavefront OBJ Exporter v0.97b - (c)2007 guruware
# File Created: 07.04.2017 18:58:50

mtllib Bala.mtl

#
# object Bala_Low_Poly
#

v  -19.7318 0.0000 38.9499
v  -20.6617 0.0000 33.6761
v  -20.6617 32.1689 33.6761
v  -19.7318 32.1689 38.9499
v  -23.3393 0.0000 29.0383
v  -23.3393 32.1689 29.0383
v  -27.4416 0.0000 25.5961
v  -27.4416 32.1689 25.5961
v  -32.4739 0.0000 23.7645
v  -32.4739 32.1689 23.7645
v  -37.8291 0.0000 23.7645
v  -37.8291 32.1689 23.7645
v  -42.8613 0.0000 25.5961
v  -42.8613 32.1689 25.5961
v  -46.9636 0.0000 29.0383
v  -46.9636 32.1689 29.0383
v  -49.6412 0.0000 33.6761
v  -49.6412 32.1689 33.6761
v  -50.5712 0.0000 38.9499
v  -50.5712 32.1689 38.9499
v  -49.6412 0.0000 44.2237
v  -49.6412 32.1689 44.2237
v  -46.9636 0.0000 48.8615
v  -46.9636 32.1689 48.8615
v  -42.8613 0.0000 52.3037
v  -42.8613 32.1689 52.3037
v  -37.8291 0.0000 54.1353
v  -37.8291 32.1689 54.1353
v  -32.4739 0.0000 54.1353
v  -32.4739 32.1689 54.1353
v  -27.4416 0.0000 52.3037
v  -27.4416 32.1689 52.3037
v  -23.3393 0.0000 48.8615
v  -23.3393 32.1689 48.8615
v  -20.6617 0.0000 44.2237
v  -20.6617 32.1689 44.2237
v  -27.4154 56.1284 36.1342
v  -28.8450 56.1284 33.6581
v  -27.4154 56.1284 41.7656
v  -26.9189 56.1284 38.9499
v  -19.9460 40.2062 38.9499
v  -20.8630 40.2062 33.7493
v  -23.5034 40.2062 29.1760
v  -27.5487 40.2062 25.7816
v  -32.5111 40.2062 23.9754
v  -37.7919 40.2062 23.9754
v  -42.7542 40.2062 25.7816
v  -46.7995 40.2062 29.1760
v  -49.4399 40.2062 33.7493
v  -50.3569 40.2062 38.9499
v  -49.4399 40.2062 44.1505
v  -46.7995 40.2062 48.7238
v  -42.7542 40.2062 52.1182
v  -37.7919 40.2062 53.9244
v  -32.5111 40.2062 53.9244
v  -27.5488 40.2062 52.1182
v  -23.5034 40.2062 48.7238
v  -20.8630 40.2062 44.1505
v  -20.5886 46.4575 38.9499
v  -21.4669 46.4575 33.9691
v  -22.1624 50.9226 38.9499
v  -22.9457 50.9226 34.5074
v  -24.3127 53.6017 38.9499
v  -24.9663 53.6017 35.2428
v  -23.9957 46.4575 29.5891
v  -25.2012 50.9226 30.6006
v  -26.8485 53.6017 31.9828
v  -27.8701 46.4575 26.3381
v  -28.6569 50.9226 27.7010
v  -29.7321 53.6017 29.5632
v  -31.0352 56.1284 31.8203
v  -32.6227 46.4575 24.6083
v  -32.8959 50.9226 26.1581
v  -33.2693 53.6017 28.2757
v  -33.7219 56.1284 30.8424
v  -37.6803 46.4575 24.6083
v  -37.4070 50.9226 26.1581
v  -37.0336 53.6017 28.2757
v  -36.5810 56.1284 30.8424
v  -42.4329 46.4575 26.3381
v  -41.6460 50.9226 27.7010
v  -40.5709 53.6017 29.5632
v  -39.2677 56.1284 31.8203
v  -46.3073 46.4575 29.5891
v  -45.1017 50.9226 30.6006
v  -43.4545 53.6017 31.9828
v  -41.4580 56.1284 33.6581
v  -48.8361 46.4575 33.9691
v  -47.3573 50.9226 34.5074
v  -45.3366 53.6017 35.2428
v  -42.8875 56.1284 36.1342
v  -49.7143 46.4575 38.9499
v  -48.1406 50.9226 38.9499
v  -45.9903 53.6017 38.9499
v  -43.3840 56.1284 38.9499
v  -48.8361 46.4575 43.9307
v  -47.3573 50.9226 43.3924
v  -45.3366 53.6017 42.6570
v  -42.8875 56.1284 41.7656
v  -46.3073 46.4575 48.3107
v  -45.1017 50.9226 47.2991
v  -43.4545 53.6017 45.9170
v  -41.4580 56.1284 44.2417
v  -42.4329 46.4575 51.5617
v  -41.6460 50.9226 50.1988
v  -40.5709 53.6017 48.3366
v  -39.2677 56.1284 46.0795
v  -37.6803 46.4575 53.2915
v  -37.4070 50.9226 51.7417
v  -37.0336 53.6017 49.6241
v  -36.5810 56.1284 47.0574
v  -32.6227 46.4575 53.2915
v  -32.8959 50.9226 51.7417
v  -33.2693 53.6017 49.6241
v  -33.7219 56.1284 47.0574
v  -27.8701 46.4575 51.5617
v  -28.6569 50.9226 50.1988
v  -29.7321 53.6017 48.3366
v  -31.0352 56.1284 46.0795
v  -23.9957 46.4575 48.3107
v  -25.2012 50.9226 47.2992
v  -26.8485 53.6017 45.9170
v  -28.8450 56.1284 44.2417
v  -21.4669 46.4575 43.9307
v  -22.9457 50.9226 43.3924
v  -24.9663 53.6017 42.6570
# 126 vertices

vn 0.7423 -0.6700 0.0000
vn 0.6976 -0.6700 -0.2539
vn 0.9396 0.0133 -0.3420
vn 0.9999 0.0133 0.0000
vn 0.5687 -0.6700 -0.4772
vn 0.7660 0.0133 -0.6427
vn 0.3712 -0.6700 -0.6429
vn 0.5000 0.0133 -0.8659
vn 0.1289 -0.6700 -0.7311
vn 0.1736 0.0133 -0.9847
vn -0.1289 -0.6700 -0.7311
vn -0.1736 0.0133 -0.9847
vn -0.3712 -0.6700 -0.6429
vn -0.5000 0.0133 -0.8659
vn -0.5687 -0.6700 -0.4772
vn -0.7660 0.0133 -0.6427
vn -0.6976 -0.6700 -0.2539
vn -0.9396 0.0133 -0.3420
vn -0.7423 -0.6700 -0.0000
vn -0.9999 0.0133 -0.0000
vn -0.6976 -0.6700 0.2539
vn -0.9396 0.0133 0.3420
vn -0.5687 -0.6700 0.4772
vn -0.7660 0.0133 0.6427
vn -0.3712 -0.6700 0.6429
vn -0.5000 0.0133 0.8659
vn -0.1289 -0.6700 0.7311
vn -0.1736 0.0133 0.9847
vn 0.1289 -0.6700 0.7311
vn 0.1736 0.0133 0.9847
vn 0.3712 -0.6700 0.6429
vn 0.5000 0.0133 0.8659
vn 0.5687 -0.6700 0.4772
vn 0.7660 0.0133 0.6427
vn 0.6976 -0.6700 0.2539
vn 0.9396 0.0133 0.3420
vn 0.3855 0.9120 -0.1403
vn 0.3142 0.9120 -0.2637
vn 0.3855 0.9120 0.1403
vn 0.4102 0.9120 0.0000
vn 0.9979 0.0642 0.0000
vn 0.9378 0.0642 -0.3413
vn 0.7645 0.0642 -0.6415
vn 0.4990 0.0642 -0.8642
vn 0.1733 0.0642 -0.9828
vn -0.1733 0.0642 -0.9828
vn -0.4990 0.0642 -0.8642
vn -0.7645 0.0642 -0.6415
vn -0.9378 0.0642 -0.3413
vn -0.9979 0.0642 -0.0000
vn -0.9378 0.0642 0.3413
vn -0.7645 0.0642 0.6415
vn -0.4990 0.0642 0.8642
vn -0.1733 0.0642 0.9828
vn 0.1733 0.0642 0.9828
vn 0.4990 0.0642 0.8642
vn 0.7645 0.0642 0.6415
vn 0.9378 0.0642 0.3413
vn 0.9764 0.2161 0.0000
vn 0.9175 0.2161 -0.3339
vn 0.8782 0.4783 0.0000
vn 0.8252 0.4783 -0.3004
vn 0.7425 0.6699 0.0000
vn 0.6977 0.6699 -0.2539
vn 0.7479 0.2161 -0.6276
vn 0.6727 0.4783 -0.5645
vn 0.5688 0.6699 -0.4773
vn 0.4882 0.2161 -0.8456
vn 0.4391 0.4783 -0.7605
vn 0.3712 0.6699 -0.6430
vn 0.2051 0.9120 -0.3552
vn 0.1695 0.2161 -0.9615
vn 0.1525 0.4783 -0.8648
vn 0.1289 0.6699 -0.7312
vn 0.0712 0.9120 -0.4040
vn -0.1695 0.2161 -0.9615
vn -0.1525 0.4783 -0.8648
vn -0.1289 0.6699 -0.7312
vn -0.0712 0.9120 -0.4040
vn -0.4882 0.2161 -0.8456
vn -0.4391 0.4783 -0.7605
vn -0.3712 0.6699 -0.6430
vn -0.2051 0.9120 -0.3552
vn -0.7479 0.2161 -0.6276
vn -0.6727 0.4783 -0.5645
vn -0.5688 0.6699 -0.4773
vn -0.3142 0.9120 -0.2637
vn -0.9175 0.2161 -0.3339
vn -0.8252 0.4783 -0.3004
vn -0.6977 0.6699 -0.2539
vn -0.3855 0.9120 -0.1403
vn -0.9764 0.2161 -0.0000
vn -0.8782 0.4783 -0.0000
vn -0.7425 0.6699 -0.0000
vn -0.4102 0.9120 -0.0000
vn -0.9175 0.2161 0.3339
vn -0.8252 0.4783 0.3004
vn -0.6977 0.6699 0.2539
vn -0.3855 0.9120 0.1403
vn -0.7479 0.2161 0.6276
vn -0.6727 0.4783 0.5645
vn -0.5688 0.6699 0.4773
vn -0.3142 0.9120 0.2637
vn -0.4882 0.2161 0.8456
vn -0.4391 0.4783 0.7605
vn -0.3712 0.6699 0.6430
vn -0.2051 0.9120 0.3552
vn -0.1695 0.2161 0.9615
vn -0.1525 0.4783 0.8648
vn -0.1289 0.6699 0.7312
vn -0.0712 0.9120 0.4040
vn 0.1695 0.2161 0.9615
vn 0.1525 0.4783 0.8648
vn 0.1289 0.6699 0.7312
vn 0.0712 0.9120 0.4040
vn 0.4882 0.2161 0.8456
vn 0.4391 0.4783 0.7605
vn 0.3712 0.6699 0.6430
vn 0.2051 0.9120 0.3552
vn 0.7479 0.2161 0.6276
vn 0.6727 0.4783 0.5645
vn 0.5688 0.6699 0.4773
vn 0.3142 0.9120 0.2637
vn 0.9175 0.2161 0.3339
vn 0.8252 0.4783 0.3004
vn 0.6977 0.6699 0.2539
# 126 vertex normals

vt 0.0206 0.1155 0.5000
vt 0.0694 0.1058 0.5009
vt 0.1162 0.3987 0.5009
vt 0.0686 0.4102 0.5000
vt 0.1190 0.0940 0.5032
vt 0.1634 0.3865 0.5032
vt 0.1701 0.0825 0.5058
vt 0.2105 0.3752 0.5058
vt 0.2227 0.0721 0.5075
vt 0.2577 0.3655 0.5075
vt 0.2766 0.0636 0.5075
vt 0.3049 0.3577 0.5075
vt 0.3314 0.0571 0.5058
vt 0.3520 0.3519 0.5058
vt 0.3869 0.0527 0.5032
vt 0.3990 0.3480 0.5032
vt 0.4423 0.0506 0.5009
vt 0.4462 0.3461 0.5009
vt 0.4975 0.0505 0.5000
vt 0.4935 0.3461 0.5000
vt 0.5532 0.0524 0.5009
vt 0.5405 0.3478 0.5009
vt 0.6092 0.0566 0.5032
vt 0.5873 0.3514 0.5032
vt 0.6646 0.0629 0.5058
vt 0.6341 0.3569 0.5058
vt 0.7192 0.0714 0.5075
vt 0.6809 0.3643 0.5075
vt 0.7728 0.0818 0.5075
vt 0.7277 0.3738 0.5075
vt 0.8250 0.0939 0.5058
vt 0.7745 0.3851 0.5058
vt 0.8756 0.1073 0.5032
vt 0.8212 0.3981 0.5032
vt 0.9248 0.1207 0.5009
vt 0.8680 0.4119 0.5009
vt 0.9732 0.1321 0.5000
vt 0.9152 0.4250 0.5000
vt 0.2481 0.8099 0.0000
vt 0.2396 0.7613 0.0000
vt 0.5232 0.7613 0.0000
vt 0.5147 0.8099 0.0000
vt 0.7533 0.7775 0.0000
vt 0.7402 0.8002 0.0000
vt 0.7533 0.7257 0.0000
vt 0.7579 0.7516 0.0000
vt 0.0897 0.4872 0.4931
vt 0.1354 0.4719 0.4939
vt 0.1807 0.4582 0.4962
vt 0.2258 0.4467 0.4988
vt 0.2705 0.4373 0.5004
vt 0.3150 0.4301 0.5004
vt 0.3593 0.4248 0.4988
vt 0.4035 0.4213 0.4962
vt 0.4477 0.4195 0.4939
vt 0.4920 0.4195 0.4931
vt 0.5361 0.4212 0.4939
vt 0.5801 0.4245 0.4962
vt 0.6242 0.4295 0.4988
vt 0.6683 0.4364 0.5004
vt 0.7124 0.4451 0.5004
vt 0.7568 0.4560 0.4988
vt 0.8014 0.4691 0.4962
vt 0.8462 0.4844 0.4939
vt 0.8913 0.5012 0.4931
vt 0.1143 0.5467 0.4722
vt 0.1558 0.5277 0.4731
vt 0.1407 0.5884 0.4212
vt 0.1759 0.5677 0.4220
vt 0.1641 0.6148 0.3515
vt 0.1930 0.5953 0.3521
vt 0.1882 0.6396 0.2669
vt 0.2107 0.6241 0.2674
vt 0.1979 0.5130 0.4752
vt 0.2137 0.5532 0.4239
vt 0.2263 0.5821 0.3537
vt 0.2387 0.6131 0.2687
vt 0.2400 0.5017 0.4777
vt 0.2523 0.5428 0.4261
vt 0.2617 0.5727 0.3555
vt 0.2705 0.6048 0.2700
vt 0.2820 0.4931 0.4793
vt 0.2914 0.5351 0.4275
vt 0.2984 0.5657 0.3567
vt 0.3048 0.5983 0.2709
vt 0.3238 0.4865 0.4793
vt 0.3308 0.5292 0.4275
vt 0.3358 0.5603 0.3567
vt 0.3405 0.5932 0.2709
vt 0.3655 0.4818 0.4777
vt 0.3704 0.5249 0.4261
vt 0.3739 0.5563 0.3555
vt 0.3771 0.5894 0.2700
vt 0.4073 0.4787 0.4752
vt 0.4102 0.5221 0.4239
vt 0.4123 0.5536 0.3537
vt 0.4142 0.5869 0.2687
vt 0.4491 0.4770 0.4731
vt 0.4501 0.5205 0.4220
vt 0.4508 0.5522 0.3521
vt 0.4515 0.5856 0.2674
vt 0.4908 0.4770 0.4722
vt 0.4901 0.5206 0.4212
vt 0.4895 0.5523 0.3515
vt 0.4889 0.5856 0.2669
vt 0.5325 0.4787 0.4731
vt 0.5300 0.5221 0.4220
vt 0.5281 0.5537 0.3521
vt 0.5263 0.5870 0.2674
vt 0.5743 0.4817 0.4752
vt 0.5698 0.5250 0.4239
vt 0.5667 0.5564 0.3537
vt 0.5636 0.5896 0.2687
vt 0.6159 0.4863 0.4777
vt 0.6095 0.5292 0.4261
vt 0.6049 0.5604 0.3555
vt 0.6006 0.5934 0.2700
vt 0.6575 0.4925 0.4793
vt 0.6489 0.5348 0.4275
vt 0.6428 0.5657 0.3567
vt 0.6370 0.5985 0.2709
vt 0.6990 0.5005 0.4793
vt 0.6881 0.5421 0.4275
vt 0.6801 0.5724 0.3567
vt 0.6726 0.6048 0.2709
vt 0.7407 0.5105 0.4777
vt 0.7269 0.5512 0.4261
vt 0.7165 0.5808 0.3555
vt 0.7066 0.6125 0.2700
vt 0.7823 0.5232 0.4752
vt 0.7652 0.5629 0.4239
vt 0.7515 0.5914 0.3537
vt 0.7381 0.6219 0.2687
vt 0.8239 0.5394 0.4731
vt 0.8024 0.5787 0.4220
vt 0.7843 0.6057 0.3521
vt 0.7657 0.6339 0.2674
vt 0.8647 0.5599 0.4722
vt 0.8369 0.6007 0.4212
vt 0.8126 0.6262 0.3515
vt 0.7876 0.6501 0.2669
vt 0.7200 0.8171 0.0000
vt 0.7402 0.7029 0.0000
vt 0.6953 0.8261 0.0000
vt 0.7200 0.6860 0.0000
vt 0.6690 0.8261 0.0000
vt 0.6953 0.6770 0.0000
vt 0.6443 0.8172 0.0000
vt 0.6690 0.6770 0.0000
vt 0.6242 0.8002 0.0000
vt 0.6443 0.6860 0.0000
vt 0.6110 0.7775 0.0000
vt 0.6242 0.7029 0.0000
vt 0.6065 0.7516 0.0000
vt 0.6110 0.7257 0.0000
vt 0.4060 0.9010 0.0000
vt 0.3568 0.9010 0.0000
vt 0.3105 0.8842 0.0000
vt 0.4523 0.8842 0.0000
vt 0.2728 0.8525 0.0000
vt 0.4901 0.8525 0.0000
vt 0.2481 0.7128 0.0000
vt 0.5147 0.7128 0.0000
vt 0.2728 0.6702 0.0000
vt 0.4901 0.6702 0.0000
vt 0.3105 0.6385 0.0000
vt 0.4523 0.6385 0.0000
vt 0.3568 0.6217 0.0000
vt 0.4060 0.6217 0.0000
# 169 texture coords

g Bala_Low_Poly
usemtl wire_177088027
s 1
f 1/1/1 2/2/2 3/3/3 4/4/4 
f 2/2/2 5/5/5 6/6/6 3/3/3 
f 5/5/5 7/7/7 8/8/8 6/6/6 
f 7/7/7 9/9/9 10/10/10 8/8/8 
f 9/9/9 11/11/11 12/12/12 10/10/10 
f 11/11/11 13/13/13 14/14/14 12/12/12 
f 13/13/13 15/15/15 16/16/16 14/14/14 
f 15/15/15 17/17/17 18/18/18 16/16/16 
f 17/17/17 19/19/19 20/20/20 18/18/18 
f 19/19/19 21/21/21 22/22/22 20/20/20 
f 21/21/21 23/23/23 24/24/24 22/22/22 
f 23/23/23 25/25/25 26/26/26 24/24/24 
f 25/25/25 27/27/27 28/28/28 26/26/26 
f 27/27/27 29/29/29 30/30/30 28/28/28 
f 29/29/29 31/31/31 32/32/32 30/30/30 
f 31/31/31 33/33/33 34/34/34 32/32/32 
f 33/33/33 35/35/35 36/36/36 34/34/34 
f 35/35/35 1/37/1 4/38/4 36/36/36 
f 21/39/21 19/40/19 1/41/1 35/42/35 
f 37/43/37 38/44/38 39/45/39 40/46/40 
f 41/47/41 4/4/4 3/3/3 42/48/42 
f 42/48/42 3/3/3 6/6/6 43/49/43 
f 43/49/43 6/6/6 8/8/8 44/50/44 
f 44/50/44 8/8/8 10/10/10 45/51/45 
f 45/51/45 10/10/10 12/12/12 46/52/46 
f 46/52/46 12/12/12 14/14/14 47/53/47 
f 47/53/47 14/14/14 16/16/16 48/54/48 
f 48/54/48 16/16/16 18/18/18 49/55/49 
f 49/55/49 18/18/18 20/20/20 50/56/50 
f 50/56/50 20/20/20 22/22/22 51/57/51 
f 51/57/51 22/22/22 24/24/24 52/58/52 
f 52/58/52 24/24/24 26/26/26 53/59/53 
f 53/59/53 26/26/26 28/28/28 54/60/54 
f 54/60/54 28/28/28 30/30/30 55/61/55 
f 55/61/55 30/30/30 32/32/32 56/62/56 
f 56/62/56 32/32/32 34/34/34 57/63/57 
f 57/63/57 34/34/34 36/36/36 58/64/58 
f 58/64/58 36/36/36 4/38/4 41/65/41 
f 59/66/59 41/47/41 42/48/42 60/67/60 
f 61/68/61 59/66/59 60/67/60 62/69/62 
f 63/70/63 61/68/61 62/69/62 64/71/64 
f 40/72/40 63/70/63 64/71/64 37/73/37 
f 60/67/60 42/48/42 43/49/43 65/74/65 
f 62/69/62 60/67/60 65/74/65 66/75/66 
f 64/71/64 62/69/62 66/75/66 67/76/67 
f 37/73/37 64/71/64 67/76/67 38/77/38 
f 65/74/65 43/49/43 44/50/44 68/78/68 
f 66/75/66 65/74/65 68/78/68 69/79/69 
f 67/76/67 66/75/66 69/79/69 70/80/70 
f 38/77/38 67/76/67 70/80/70 71/81/71 
f 68/78/68 44/50/44 45/51/45 72/82/72 
f 69/79/69 68/78/68 72/82/72 73/83/73 
f 70/80/70 69/79/69 73/83/73 74/84/74 
f 71/81/71 70/80/70 74/84/74 75/85/75 
f 72/82/72 45/51/45 46/52/46 76/86/76 
f 73/83/73 72/82/72 76/86/76 77/87/77 
f 74/84/74 73/83/73 77/87/77 78/88/78 
f 75/85/75 74/84/74 78/88/78 79/89/79 
f 76/86/76 46/52/46 47/53/47 80/90/80 
f 77/87/77 76/86/76 80/90/80 81/91/81 
f 78/88/78 77/87/77 81/91/81 82/92/82 
f 79/89/79 78/88/78 82/92/82 83/93/83 
f 80/90/80 47/53/47 48/54/48 84/94/84 
f 81/91/81 80/90/80 84/94/84 85/95/85 
f 82/92/82 81/91/81 85/95/85 86/96/86 
f 83/93/83 82/92/82 86/96/86 87/97/87 
f 84/94/84 48/54/48 49/55/49 88/98/88 
f 85/95/85 84/94/84 88/98/88 89/99/89 
f 86/96/86 85/95/85 89/99/89 90/100/90 
f 87/97/87 86/96/86 90/100/90 91/101/91 
f 88/98/88 49/55/49 50/56/50 92/102/92 
f 89/99/89 88/98/88 92/102/92 93/103/93 
f 90/100/90 89/99/89 93/103/93 94/104/94 
f 91/101/91 90/100/90 94/104/94 95/105/95 
f 92/102/92 50/56/50 51/57/51 96/106/96 
f 93/103/93 92/102/92 96/106/96 97/107/97 
f 94/104/94 93/103/93 97/107/97 98/108/98 
f 95/105/95 94/104/94 98/108/98 99/109/99 
f 96/106/96 51/57/51 52/58/52 100/110/100 
f 97/107/97 96/106/96 100/110/100 101/111/101 
f 98/108/98 97/107/97 101/111/101 102/112/102 
f 99/109/99 98/108/98 102/112/102 103/113/103 
f 100/110/100 52/58/52 53/59/53 104/114/104 
f 101/111/101 100/110/100 104/114/104 105/115/105 
f 102/112/102 101/111/101 105/115/105 106/116/106 
f 103/113/103 102/112/102 106/116/106 107/117/107 
f 104/114/104 53/59/53 54/60/54 108/118/108 
f 105/115/105 104/114/104 108/118/108 109/119/109 
f 106/116/106 105/115/105 109/119/109 110/120/110 
f 107/117/107 106/116/106 110/120/110 111/121/111 
f 108/118/108 54/60/54 55/61/55 112/122/112 
f 109/119/109 108/118/108 112/122/112 113/123/113 
f 110/120/110 109/119/109 113/123/113 114/124/114 
f 111/121/111 110/120/110 114/124/114 115/125/115 
f 112/122/112 55/61/55 56/62/56 116/126/116 
f 113/123/113 112/122/112 116/126/116 117/127/117 
f 114/124/114 113/123/113 117/127/117 118/128/118 
f 115/125/115 114/124/114 118/128/118 119/129/119 
f 116/126/116 56/62/56 57/63/57 120/130/120 
f 117/127/117 116/126/116 120/130/120 121/131/121 
f 118/128/118 117/127/117 121/131/121 122/132/122 
f 119/129/119 118/128/118 122/132/122 123/133/123 
f 120/130/120 57/63/57 58/64/58 124/134/124 
f 121/131/121 120/130/120 124/134/124 125/135/125 
f 122/132/122 121/131/121 125/135/125 126/136/126 
f 123/133/123 122/132/122 126/136/126 39/137/39 
f 124/134/124 58/64/58 41/65/41 59/138/59 
f 125/135/125 124/134/124 59/138/59 61/139/61 
f 126/136/126 125/135/125 61/139/61 63/140/63 
f 39/137/39 126/136/126 63/140/63 40/141/40 
f 71/142/71 123/143/123 39/45/39 38/44/38 
f 75/144/75 119/145/119 123/143/123 71/142/71 
f 79/146/79 115/147/115 119/145/119 75/144/75 
f 83/148/83 111/149/111 115/147/115 79/146/79 
f 87/150/87 107/151/107 111/149/111 83/148/83 
f 91/152/91 103/153/103 107/151/107 87/150/87 
f 95/154/95 99/155/99 103/153/103 91/152/91 
f 29/156/29 27/157/27 25/158/25 31/159/31 
f 31/159/31 25/158/25 23/160/23 33/161/33 
f 33/161/33 23/160/23 21/39/21 35/42/35 
f 17/162/17 2/163/2 1/41/1 19/40/19 
f 15/164/15 5/165/5 2/163/2 17/162/17 
f 13/166/13 7/167/7 5/165/5 15/164/15 
f 11/168/11 9/169/9 7/167/7 13/166/13 
# 124 polygons

